<svg xmlns="http://www.w3.org/2000/svg" width="11.557" height="19" viewBox="0 0 11.557 19">
  <path fill="rgb(255,255,255)" fill-rule="evenodd" d="M8.7784729 3c0-1.65685272-1.34313965-3-3-3s-3 1.34314728-3 3v7c0 1.65685272 1.34313965 3 3 3s3-1.34314728 3-3V3zm1.3338623 4.68380737c0-.39892578.32339478-.72231292.72232056-.72231292s.72232056.32338714.72232056.72231292v2.64846802c-.00143433 2.91100311-2.16799927 5.36645508-5.05618286 5.73033142v1.49276734h1.92614746c.39892578 0 .72232055.32339477.72232055.72231292S8.8258667 19 8.42694092 19H3.13000488c-.39892578 0-.72229004-.32339478-.72229004-.72231293 0-.39891815.32336426-.72231292.72229004-.72231292h1.92617798V16.0626068C2.16799926 15.69873047.00143433 13.24327851 0 10.3322754V7.68380737c0-.39892578.32339478-.72231292.72232056-.72231292s.72229004.32338714.72229004.72231292v2.64846802c0 2.39352417 1.94033813 4.3338623 4.3338623 4.3338623s4.3338623-1.94033813 4.3338623-4.3338623V7.68380737z"/>
</svg>
