<svg xmlns="http://www.w3.org/2000/svg" xmlns:xlink="http://www.w3.org/1999/xlink" width="21.616" height="21.859" viewBox="0 0 21.616 21.859">
  <defs>
    <path id="path-1" fill-rule="evenodd" d="M2.13355237 3.39167679c-.33560044-.34007511-.33560044-.90357166 0-1.25550986.34633185-.33908652.89168256-.33908652 1.2380144 0l7.43198876 7.54195643 7.4456469-7.54195643c.33560045-.33908652.89168256-.33908652 1.227283 0 .3434051.3519382.3434051.91543475 0 1.25550986l-7.4349155 7.53009334 7.4349155 7.5459108c.3434051.3400751.3434051.90357165 0 1.25452126-.33560044.3400751-.89558489.3400751-1.227283 0l-7.4456469-7.5449222-7.43198875 7.5449222c-.34633185.3400751-.89168256.3400751-1.2380144 0-.33560045-.3509496-.33560045-.91444616 0-1.25452127l7.43101316-7.54591079L2.13355237 3.3916768z"/>
    <mask id="mask-2" x="0" y="0" maskContentUnits="userSpaceOnUse" maskUnits="userSpaceOnUse">
      <rect width="21.616" height="21.859" x="0" y="0" fill="white"/>
      <use fill="black" xlink:href="#path-1"/>
    </mask>
  </defs>
  <g>
    <use fill="rgb(255,255,255)" xlink:href="#path-1"/>
    <use fill-opacity="0" stroke="rgb(255,255,255)" stroke-width=".8" mask="url(#mask-2)" xlink:href="#path-1"/>
  </g>
</svg>
