<svg xmlns="http://www.w3.org/2000/svg" xmlns:xlink="http://www.w3.org/1999/xlink" width="32" height="32" viewBox="0 0 32 32">
  <defs>
    <path id="path-1" fill-rule="evenodd" d="M21.09287618 7.03309977c1.68554687 0 3.26483154.64985657 4.45776367 1.83885956 1.19293213 1.18899536 1.84494018 2.76791382 1.84008789 4.44791412 0 1.68000794-.65682984 3.2589264-1.84976196 4.44792175l-9.0894165 9.02581788c-.12554932.12515258-.29458619.18772888-.45880128.18772888-.16421509 0-.33325195-.06739044-.45883179-.19255066L6.46381734 17.7485386C5.2708852 16.55954325 4.6092336 14.98543894 4.6092336 13.30543864c-.00482178-1.68000794.65200805-3.25891877 1.84494018-4.44792176 1.18807984-1.18418884 2.7722168-1.83885955 4.4529419-1.83885955 1.68554687 0 3.27450561.65948486 4.46743774 1.84848785l.63269043.63059998.62301636-.62097168c1.19293213-1.189003 2.77703857-1.84367371 4.46261597-1.84367371zM15.992748 25.41686594l8.63061524-8.56850433c.94659423-.9434967 1.46820068-2.19507599 1.4633789-3.52848816 0-1.33341217-.51678467-2.58499145-1.4633789-3.52848816-.94662476-.93869018-2.20233155-1.45857239-3.53530884-1.45857239-1.33300781 0-2.59353638.5198822-3.54016113 1.46338654l-1.08184815 1.07828522c-.25595093.25512695-.66647339.25512695-.92245483 0l-1.0914917-1.08791352c-.94662476-.9434967-2.20715332-1.46338653-3.54498291-1.46338653-1.3329773 0-2.58868408.51988983-3.53048706 1.45857239-.94659424.93868255-1.4633789 2.19026184-1.4633789 3.523674 0 1.33341218.52160644 2.58499146 1.4682312 3.5284958l8.61126708 8.58293914z"/>
  </defs>
  <g>
    <use fill="rgb(255,255,255)" xlink:href="#path-1"/>
    <use fill-opacity="0" stroke="rgb(255,255,255)" stroke-width=".7" xlink:href="#path-1"/>
  </g>
</svg>
