<svg xmlns="http://www.w3.org/2000/svg" width="15.946" height="15.403" viewBox="0 0 15.946 15.403">
  <path fill="rgb(255,255,255)" fill-rule="evenodd" d="M15.2846855 9.12119423c-.0775808.04263738-.15516161.08527477-.23530707.1253475-1.03644106.51902198-2.14501302.78189908-3.29526063.78189908-2.81214381 0-5.3405727-1.56091293-6.5988564-4.0739539-.81171319-1.62086173-.99765065-3.4773511-.52351012-5.22740732L4.82890911 0l-.66071916.36193689C.37314225 2.44219239-1.08133752 7.10409336.85657965 10.97543954c1.36792267 2.73135719 4.11595011 4.42787623 7.17237728 4.42787623 1.2509103 0 2.45629799-.28595899 3.58282254-.84986243 2.03729753-1.02041196 3.54852027-2.86920738 4.1460848-5.07224571l.18786096-.72195029-.66103974.3619369z"/>
</svg>
