<svg xmlns="http://www.w3.org/2000/svg" width="14" height="13.999" viewBox="0 0 14 13.999">
  <path fill="rgb(255,255,255)" fill-rule="evenodd" d="M9.91009521 8.73955536l3.83300019 3.83450317c.21739197.2068634.30557632.51530457.23039245.80581665-.07518768.29051209-.30192947.51744843-.5923767.59288025-.29045105.07543946-.59896851-.01248932-.80601502-.22969818l-3.8295021-3.83150482-.00400162.00300598c-.93772126.6941986-2.07478714 1.0665512-3.24149704 1.06150055-3.03339958-.01752472-5.4868908-2.47457886-5.5-5.50800323-.00856018-1.45150757.56374931-2.84615326 1.58943557-3.87325287C2.6152153.56771088 4.00907516-.00650787 5.46059418.0000534c3.03312301.01752471 5.48638916 2.4743576 5.49950027 5.5074997.00513077 1.16197967-.3629303 2.2949066-1.04999924 3.23200225zM1.09609413 5.47205353c.01065254 2.42660522 1.97341538 4.39204407 4.39999962 4.40600586 1.16106606.00482177 2.275877-.45472718 3.09627151-1.27633667.82039261-.82161713 1.27827836-1.9371109 1.27172852-3.09816742-.01065063-2.42660523-1.97341347-4.39203644-4.39999962-4.40599823-1.16106605-.00482178-2.27587509.45471954-3.0962696 1.27633667-.82039261.8216095-1.27827836 1.93710327-1.27173043 3.09815979z"/>
</svg>
