<svg xmlns="http://www.w3.org/2000/svg" width="18.046" height="24.395" viewBox="0 0 18.046 24.395">
  <path fill="rgb(255,255,255)" fill-rule="evenodd" d="M13.07385254 3.63591766c.18115234.18110657.29342651.43174744.29342651.70848084 0 .55340576-.44848633 1.00254822-1.00256347 1.00254822-.27670288 0-.52731324-.11228943-.70846558-.29406739l-1.63082886-1.63018036v10.9471817c0 .55340577-.4484558 1.00254822-1.00253296 1.00254822-.55407714 0-1.00256347-.44914245-1.00256347-1.00254821V3.42269898L6.38952637 5.0535202c-.18112183.18113709-.4317627.29342652-.70846558.29342652-.55407715 0-1.00253296-.44914246-1.00253296-1.00254822 0-.2767334.11227417-.52737427.2940979-.70848084L8.31445313.29413223C8.49557494.11231613 8.74624632 0 9.0229187 0c.27667236 0 .52731323.11231613.70910645.29413223l3.34182739 3.34178543zm-.04071045 4.0503006h3.67599487c.73721314 0 1.33673096.60017395 1.33670044 1.33672333v14.03567505c0 .73654938-.59951782 1.33674621-1.33673095 1.33674621H1.33673095C.59951783 24.39536285 0 23.79516602 0 23.05861664V9.02294159c0-.73654938.59951782-1.33672333 1.33673096-1.33672333h3.67602539c.55407715 0 1.00253296.44914246 1.00253296 1.00254822S5.5668335 9.6913147 5.01275635 9.6913147H2.00509644v12.69895172h14.03567504V9.6913147H13.0331421c-.55410767 0-1.00256348-.44914246-1.00256348-1.00254822s.44845581-1.00254822 1.00256348-1.00254822z"/>
</svg>
